<svg xmlns="http://www.w3.org/2000/svg" width="300" height="300" viewBox="0 0 300 300">
  <g stroke="#9d61e3" stroke-width="2" stroke-linecap="round" stroke-linejoin="round" fill="none" opacity="0.15">
    <!-- Traffic Light -->
    <rect x="20" y="20" width="24" height="60" rx="6" />
    <circle cx="32" cy="34" r="6" />
    <circle cx="32" cy="50" r="6" />
    <circle cx="32" cy="66" r="6" />
    <line x1="32" y1="80" x2="32" y2="100" />
    <line x1="22" y1="100" x2="42" y2="100" />
    
    <!-- Garbage Truck -->
    <path d="M 120 40 L 140 40 L 148 55 L 148 70 L 120 70 Z" />
    <path d="M 125 45 L 138 45 L 141 55 L 125 55 Z" />
    <path d="M 80 30 L 120 30 L 120 70 L 80 70 Z" />
    <circle cx="95" cy="70" r="8" />
    <circle cx="132" cy="70" r="8" />
    <line x1="93" y1="30" x2="93" y2="62" />
    <line x1="107" y1="30" x2="107" y2="62" />
    
    <!-- Car (Uber/Remis) -->
    <path d="M 180 60 L 195 45 L 225 45 L 240 60 L 250 60 L 250 75 L 170 75 L 170 60 Z" />
    <path d="M 198 45 L 208 45 L 208 60 L 183 60 Z" />
    <path d="M 212 45 L 222 45 L 237 60 L 212 60 Z" />
    <circle cx="190" cy="75" r="8" />
    <circle cx="230" cy="75" r="8" />
    <rect x="202" y="36" width="16" height="9" rx="2" />
    
    <!-- Pen & Paper -->
    <rect x="45" y="145" width="35" height="45" rx="2" />
    <rect x="35" y="155" width="35" height="45" rx="2" transform="rotate(-15 52 177)" />
    <line x1="42" y1="170" x2="60" y2="170" transform="rotate(-15 52 177)" />
    <line x1="42" y1="180" x2="55" y2="180" transform="rotate(-15 52 177)" />
    <path d="M 85 190 L 105 130 L 112 132 L 92 192 Z" />
    <path d="M 85 190 L 81 198 L 92 192 Z" />
    <line x1="100" y1="145" x2="107" y2="147" />
    
    <!-- Traffic Cone & Shovel -->
    <line x1="130" y1="190" x2="170" y2="190" />
    <path d="M 135 190 L 145 140 L 155 140 L 165 190 Z" />
    <line x1="138" y1="175" x2="162" y2="175" />
    <line x1="142" y1="155" x2="158" y2="155" />
    <line x1="190" y1="130" x2="220" y2="170" />
    <path d="M 182 125 L 195 115 L 202 120 L 190 130 Z" />
    <path d="M 220 170 L 215 180 C 220 190 230 195 240 185 L 230 165 Z" />
    
    <!-- Municipal Building -->
    <rect x="110" y="270" width="80" height="6" />
    <rect x="100" y="276" width="100" height="6" />
    <rect x="120" y="230" width="12" height="40" />
    <rect x="144" y="230" width="12" height="40" />
    <rect x="168" y="230" width="12" height="40" />
    <rect x="110" y="218" width="80" height="12" />
    <path d="M 105 218 L 150 188 L 195 218 Z" />
    <circle cx="150" cy="205" r="5" />
    
    <!-- Geometric decorations (doodles) -->
    <path d="M 270 120 L 280 120 M 275 115 L 275 125 Z" />
    <path d="M 40 250 L 50 250 M 45 245 L 45 255 Z" />
    <path d="M 250 240 L 265 265 L 235 265 Z" />
    <circle cx="280" cy="40" r="3" />
    <circle cx="80" cy="280" r="3" />
    <circle cx="20" cy="150" r="3" />
    <path d="M 260 200 Q 270 190 280 200 T 300 200" />
    <path d="M 60 40 Q 70 30 80 40 T 100 40" />
    <circle cx="240" cy="120" r="8" />
    <circle cx="90" cy="230" r="5" />
  </g>
</svg>
